<?xml version="1.0" encoding="UTF-8" standalone="no"?><!DOCTYPE svg PUBLIC "-//W3C//DTD SVG 1.1//EN" "http://www.w3.org/Graphics/SVG/1.1/DTD/svg11.dtd"><svg width="100%" height="100%" viewBox="0 0 8005 4505" version="1.1" xmlns="http://www.w3.org/2000/svg" xmlns:xlink="http://www.w3.org/1999/xlink" xml:space="preserve" xmlns:serif="http://www.serif.com/" style="fill-rule:evenodd;clip-rule:evenodd;stroke-linejoin:round;stroke-miterlimit:2;"><rect id="Presentation-Light-Background" serif:id="Presentation Light Background" x="3.408" y="1.91" width="8000" height="4500" style="fill:none;"/><clipPath id="_clip1"><rect x="3.408" y="1.91" width="8000" height="4500"/></clipPath><g clip-path="url(#_clip1)"><rect id="Background" x="3.408" y="1.91" width="8000" height="4500" style="fill:#e8f2fc;"/><g id="Imagotype"><path id="path4" d="M487.76,323.708l-0,21.239c-17.528,-17.67 -37.357,-26.415 -59.488,-26.415c-26.026,0 -47.626,9.638 -64.976,29.093c1.239,-0.178 2.479,-0.178 3.895,-0.178c15.934,0 29.39,11.244 32.931,26.415c9.738,-9.995 21.777,-14.993 35.764,-14.993c16.111,0 29.213,5.711 39.305,17.313c10.092,11.78 15.226,26.772 15.226,44.799c0,18.384 -5.134,33.376 -15.403,44.799c-10.092,11.423 -23.37,17.134 -39.659,17.134c-15.403,0 -27.974,-5.89 -38.065,-17.848c-9.915,-11.601 -15.049,-26.772 -15.049,-45.513c0,-2.677 0.177,-5.354 0.354,-8.032c-4.78,2.499 -10.092,3.927 -15.757,3.927c-11.862,0 -22.308,-6.247 -28.328,-15.528c-1.062,6.782 -1.77,14.1 -1.77,21.596c0,28.914 8.675,53.188 25.849,72.464c16.997,19.276 38.596,28.736 64.445,28.736c22.662,0 42.668,-9.103 60.196,-27.129l0,88.885c6.374,-5.354 14.518,-8.567 23.547,-8.567c7.79,0 15.049,2.499 21.069,6.604l0,-258.8l-44.085,0Z" style="fill:#659ed5;fill-rule:nonzero;"/><path id="path6" d="M860.445,395.279c-16.997,-7.318 -25.672,-14.636 -25.672,-21.953c0,-4.284 1.416,-7.675 4.249,-10.352c2.833,-2.677 6.374,-4.105 10.446,-4.105c1.593,0 3.187,0.178 4.78,0.714l0,-0.714c0,-15.707 9.915,-29.271 23.724,-34.626c-7.436,-3.57 -15.934,-5.533 -25.141,-5.533c-16.642,0 -30.806,5.533 -42.491,16.42c-11.508,11.066 -17.174,24.809 -17.174,41.765c0,12.672 3.364,23.024 10.092,31.235c5.311,6.425 14.341,12.672 27.265,19.098c4.603,2.32 9.206,4.462 13.633,6.604c4.426,2.142 8.852,4.284 13.456,6.604c11.508,6.961 17.351,14.279 17.351,22.31c0,13.743 -7.436,20.704 -22.485,20.704c-7.436,0 -13.987,-2.499 -19.298,-7.496c-2.833,-2.499 -6.728,-8.389 -12.039,-17.67l-37.888,17.67c13.456,31.056 36.295,46.941 68.34,46.941c18.767,0 34.878,-5.89 47.98,-17.848c13.633,-12.494 20.538,-28.2 20.538,-46.941c0,-14.636 -4.072,-26.059 -12.216,-34.804c-7.967,-8.389 -23.901,-17.848 -47.449,-28.022Z" style="fill:#659ed5;fill-rule:nonzero;"/><path id="path8" d="M1009.165,228.041c2.833,-5.711 8.144,-8.567 15.934,-8.567c6.197,0 13.987,2.499 23.547,7.318l4.603,2.32l0,-45.692c-11.862,-4.641 -21.777,-6.961 -29.744,-6.961c-22.131,0 -38.95,6.961 -50.459,21.061c-8.321,9.995 -12.57,27.308 -12.57,51.582l0,74.606l-15.757,0l0,41.765l15.757,0l0,112.444c5.488,-6.247 13.633,-10.352 22.485,-10.352c8.675,0 16.465,3.748 21.954,9.638l0,-111.73l48.334,0l0,-41.765l-48.334,0l0,-63.718c0.177,-15.707 1.593,-26.415 4.249,-31.948Z" style="fill:#659ed5;fill-rule:nonzero;"/><path id="path10" d="M733.148,346.375c0.177,0 0.177,0 0,0c-19.475,-18.562 -43.2,-27.843 -70.819,-27.843c-27.619,0 -51.344,9.281 -70.819,27.843c15.934,0 29.567,10.352 34.701,24.809c9.738,-8.21 21.777,-12.315 36.118,-12.315c14.518,0 26.557,4.105 36.295,12.137c5.134,-14.279 18.59,-24.631 34.524,-24.631Z" style="fill:#659ed5;fill-rule:nonzero;"/><path id="path12" d="M698.8,470.956c-9.738,8.032 -21.777,11.958 -36.472,11.958c-14.518,0 -26.557,-4.105 -36.295,-12.137c-5.134,14.279 -18.59,24.452 -34.524,24.452c18.944,18.384 42.314,27.486 69.934,27.486c28.151,0 52.052,-9.103 71.704,-27.486c-15.757,0.178 -29.39,-9.995 -34.347,-24.274Z" style="fill:#659ed5;fill-rule:nonzero;"/><ellipse id="circle14" cx="982.784" cy="501.834" rx="23.016" ry="23.203" style="fill:#ffcd5f;"/><ellipse id="circle16" cx="889.657" cy="355.478" rx="23.016" ry="23.203" style="fill:#ffcd5f;"/><ellipse id="circle18" cx="367.19" cy="381.536" rx="23.016" ry="23.203" style="fill:#ffcd5f;"/><ellipse id="circle20" cx="509.891" cy="610.173" rx="23.016" ry="23.203" style="fill:#ffcd5f;"/><ellipse id="circle22" cx="732.793" cy="379.751" rx="23.016" ry="23.203" style="fill:#ffcd5f;"/><ellipse id="circle24" cx="732.616" cy="461.675" rx="23.016" ry="23.203" style="fill:#ffcd5f;"/><ellipse id="circle26" cx="590.978" cy="461.854" rx="23.016" ry="23.203" style="fill:#ffcd5f;"/><ellipse id="circle28" cx="591.155" cy="379.93" rx="23.016" ry="23.203" style="fill:#ffcd5f;"/></g><g id="Imagotype-deco" serif:id="Imagotype deco" opacity="0.5"><path id="path41" serif:id="path4" d="M4151.829,3977.354l0,144.82c-119.511,-120.48 -254.716,-180.112 -405.614,-180.112c-177.456,0 -324.733,65.717 -443.037,198.367c8.45,-1.217 16.901,-1.217 26.558,-1.217c108.647,0 200.393,76.669 224.536,180.112c66.395,-68.15 148.484,-102.226 243.851,-102.226c109.854,0 199.185,38.943 267.995,118.046c68.809,80.32 103.818,182.546 103.818,305.46c0,125.348 -35.008,227.574 -105.025,305.46c-68.809,77.886 -159.348,116.829 -270.409,116.829c-105.025,0 -190.735,-40.16 -259.545,-121.697c-67.602,-79.103 -102.611,-182.546 -102.611,-310.328c0,-18.255 1.207,-36.509 2.414,-54.764c-32.594,17.038 -68.809,26.773 -107.439,26.773c-80.881,0 -152.105,-42.594 -193.149,-105.877c-7.243,46.245 -12.072,96.141 -12.072,147.254c0,197.15 59.152,362.658 176.249,494.091c115.89,131.433 263.166,195.933 439.415,195.933c154.52,0 290.931,-62.066 410.443,-184.98l0,606.052c43.459,-36.509 98.989,-58.415 160.555,-58.415c53.116,0 102.611,17.038 143.655,45.028l0,-1764.61l-300.589,0Z" style="fill:#659ed5;fill-rule:nonzero;"/><path id="path61" serif:id="path6" d="M6692.951,4465.36c-115.89,-49.896 -175.042,-99.792 -175.042,-149.688c0,-29.207 9.657,-52.33 28.972,-70.584c19.315,-18.255 43.459,-27.99 71.224,-27.99c10.865,0 21.729,1.217 32.594,4.868l0,-4.868c0,-107.094 67.602,-199.584 161.763,-236.093c-50.702,-24.339 -108.647,-37.726 -171.42,-37.726c-113.475,0 -210.05,37.726 -289.724,111.961c-78.467,75.452 -117.097,169.159 -117.097,284.772c0,86.405 22.936,156.989 68.809,212.97c36.216,43.811 97.782,86.405 185.906,130.216c31.387,15.821 62.774,30.424 92.953,45.028c30.18,14.604 60.359,29.207 91.746,45.028c78.467,47.462 118.304,97.358 118.304,152.122c0,93.707 -50.702,141.169 -153.312,141.169c-50.702,0 -95.368,-17.038 -131.583,-51.113c-19.315,-17.038 -45.873,-57.198 -82.089,-120.48l-258.337,120.48c91.746,211.753 247.473,320.064 465.973,320.064c127.962,0 237.815,-40.16 327.147,-121.697c92.953,-85.188 140.033,-192.282 140.033,-320.064c0,-99.792 -27.765,-177.678 -83.296,-237.31c-54.323,-57.198 -162.97,-121.697 -323.525,-191.065Z" style="fill:#659ed5;fill-rule:nonzero;"/><path id="path81" serif:id="path8" d="M7706.986,3325.057c19.315,-38.943 55.53,-58.415 108.647,-58.415c42.251,0 95.368,17.038 160.555,49.896l31.387,15.821l0,-311.545c-80.881,-31.641 -148.484,-47.462 -202.807,-47.462c-150.898,0 -265.581,47.462 -344.047,143.603c-56.738,68.15 -85.71,186.197 -85.71,351.705l0,508.695l-107.439,0l0,284.772l107.439,0l0,766.693c37.423,-42.594 92.953,-70.584 153.312,-70.584c59.152,0 112.268,25.556 149.691,65.717l0,-761.825l329.561,0l0,-284.772l-329.561,0l0,-434.459c1.207,-107.094 10.865,-180.112 28.972,-217.838Z" style="fill:#659ed5;fill-rule:nonzero;"/><path id="path101" serif:id="path10" d="M5824.986,4131.91c1.207,0 1.207,0 0,0c-132.79,-126.565 -294.553,-189.848 -482.874,-189.848c-188.321,0 -350.083,63.283 -482.874,189.848c108.647,0 201.6,70.584 236.608,169.159c66.395,-55.981 148.484,-83.971 246.266,-83.971c98.989,0 181.078,27.99 247.473,82.754c35.008,-97.358 126.754,-167.942 235.401,-167.942Z" style="fill:#659ed5;fill-rule:nonzero;"/><ellipse id="circle161" serif:id="circle16" cx="6892.137" cy="4193.975" rx="156.934" ry="158.206" style="fill:#ffcd5f;"/><ellipse id="circle181" serif:id="circle18" cx="3329.736" cy="4371.653" rx="156.934" ry="158.206" style="fill:#ffcd5f;"/><ellipse id="circle221" serif:id="circle22" cx="5822.572" cy="4359.483" rx="156.934" ry="158.206" style="fill:#ffcd5f;"/><ellipse id="circle281" serif:id="circle28" cx="4856.824" cy="4360.7" rx="156.934" ry="158.206" style="fill:#ffcd5f;"/></g></g></svg>