<?xml version="1.0" encoding="UTF-8" standalone="no"?><!DOCTYPE svg PUBLIC "-//W3C//DTD SVG 1.1//EN" "http://www.w3.org/Graphics/SVG/1.1/DTD/svg11.dtd"><svg width="100%" height="100%" viewBox="0 0 8000 4505" version="1.1" xmlns="http://www.w3.org/2000/svg" xmlns:xlink="http://www.w3.org/1999/xlink" xml:space="preserve" xmlns:serif="http://www.serif.com/" style="fill-rule:evenodd;clip-rule:evenodd;stroke-linejoin:round;stroke-miterlimit:2;"><rect id="Virtual-Background" serif:id="Virtual Background" x="0" y="1.91" width="8000" height="4500" style="fill:none;"/><clipPath id="_clip1"><rect x="0" y="1.91" width="8000" height="4500"/></clipPath><g clip-path="url(#_clip1)"><rect id="Background" x="0" y="1.91" width="8000" height="4500" style="fill:url(#_Linear2);"/><g id="Imagotype"><path id="path4" d="M379.6,374.935l-0,20.918c-17.262,-17.402 -36.792,-26.016 -58.587,-26.016c-25.632,0 -46.905,9.492 -63.993,28.652c1.221,-0.176 2.441,-0.176 3.836,-0.176c15.693,0 28.945,11.074 32.432,26.016c9.59,-9.844 21.447,-14.766 35.222,-14.766c15.867,0 28.771,5.625 38.71,17.051c9.939,11.602 14.996,26.367 14.996,44.121c0,18.105 -5.057,32.871 -15.17,44.121c-9.939,11.25 -23.016,16.875 -39.058,16.875c-15.17,0 -27.55,-5.801 -37.489,-17.578c-9.765,-11.426 -14.821,-26.367 -14.821,-44.824c0,-2.637 0.174,-5.273 0.349,-7.91c-4.708,2.461 -9.939,3.867 -15.519,3.867c-11.683,0 -21.97,-6.152 -27.899,-15.293c-1.046,6.68 -1.744,13.887 -1.744,21.27c0,28.477 8.544,52.383 25.458,71.367c16.739,18.984 38.012,28.301 63.47,28.301c22.319,0 42.023,-8.965 59.285,-26.719l0,87.539c6.277,-5.273 14.298,-8.438 23.191,-8.438c7.672,0 14.821,2.461 20.75,6.504l0,-254.883l-43.417,0Z" style="fill:#659ed5;fill-rule:nonzero;"/><path id="path6" d="M746.644,445.424c-16.739,-7.207 -25.283,-14.414 -25.283,-21.621c0,-4.219 1.395,-7.559 4.185,-10.195c2.79,-2.637 6.277,-4.043 10.288,-4.043c1.569,0 3.139,0.176 4.708,0.703l0,-0.703c0,-15.469 9.765,-28.828 23.365,-34.102c-7.323,-3.516 -15.693,-5.449 -24.76,-5.449c-16.391,0 -30.34,5.449 -41.848,16.172c-11.334,10.898 -16.914,24.434 -16.914,41.133c0,12.48 3.313,22.676 9.939,30.762c5.231,6.328 14.124,12.48 26.853,18.809c4.534,2.285 9.067,4.395 13.426,6.504c4.359,2.109 8.718,4.219 13.252,6.504c11.334,6.855 17.088,14.063 17.088,21.973c0,13.535 -7.323,20.391 -22.145,20.391c-7.323,0 -13.775,-2.461 -19.006,-7.383c-2.79,-2.461 -6.626,-8.262 -11.857,-17.402l-37.315,17.402c13.252,30.586 35.745,46.23 67.306,46.23c18.483,0 34.35,-5.801 47.254,-17.578c13.426,-12.305 20.227,-27.773 20.227,-46.23c0,-14.414 -4.01,-25.664 -12.031,-34.277c-7.847,-8.262 -23.54,-17.578 -46.73,-27.598Z" style="fill:#659ed5;fill-rule:nonzero;"/><path id="path8" d="M893.112,280.717c2.79,-5.625 8.021,-8.438 15.693,-8.438c6.103,0 13.775,2.461 23.191,7.207l4.534,2.285l0,-45c-11.683,-4.57 -21.447,-6.855 -29.294,-6.855c-21.796,0 -38.361,6.855 -49.695,20.742c-8.195,9.844 -12.38,26.895 -12.38,50.801l0,73.477l-15.519,0l0,41.133l15.519,0l0,110.742c5.405,-6.152 13.426,-10.195 22.145,-10.195c8.544,0 16.216,3.691 21.622,9.492l0,-110.039l47.602,0l0,-41.133l-47.602,0l0,-62.754c0.174,-15.469 1.569,-26.016 4.185,-31.465Z" style="fill:#659ed5;fill-rule:nonzero;"/><path id="path10" d="M621.274,397.26c0.174,0 0.174,0 0,0c-19.18,-18.281 -42.546,-27.422 -69.747,-27.422c-27.201,0 -50.567,9.141 -69.747,27.422c15.693,0 29.119,10.195 34.176,24.434c9.59,-8.086 21.447,-12.129 35.571,-12.129c14.298,0 26.155,4.043 35.745,11.953c5.057,-14.063 18.309,-24.258 34.002,-24.258Z" style="fill:#659ed5;fill-rule:nonzero;"/><path id="path12" d="M587.446,519.955c-9.59,7.91 -21.447,11.777 -35.92,11.777c-14.298,0 -26.155,-4.043 -35.745,-11.953c-5.057,14.063 -18.309,24.082 -34.002,24.082c18.657,18.105 41.674,27.07 68.875,27.07c27.724,0 51.264,-8.965 70.619,-27.07c-15.519,0.176 -28.945,-9.844 -33.827,-23.906Z" style="fill:#659ed5;fill-rule:nonzero;"/><ellipse id="circle14" cx="867.131" cy="550.365" rx="22.668" ry="22.852" style="fill:#ffcd5f;"/><ellipse id="circle16" cx="775.414" cy="406.224" rx="22.668" ry="22.852" style="fill:#ffcd5f;"/><ellipse id="circle18" cx="260.856" cy="431.888" rx="22.668" ry="22.852" style="fill:#ffcd5f;"/><ellipse id="circle20" cx="401.396" cy="657.064" rx="22.668" ry="22.852" style="fill:#ffcd5f;"/><ellipse id="circle22" cx="620.925" cy="430.131" rx="22.668" ry="22.852" style="fill:#ffcd5f;"/><ellipse id="circle24" cx="620.75" cy="510.814" rx="22.668" ry="22.852" style="fill:#ffcd5f;"/><ellipse id="circle26" cx="481.257" cy="510.99" rx="22.668" ry="22.852" style="fill:#ffcd5f;"/><ellipse id="circle28" cx="481.431" cy="430.306" rx="22.668" ry="22.852" style="fill:#ffcd5f;"/></g><circle id="circle201" serif:id="circle20" cx="-32.975" cy="4622.818" r="913.795" style="fill:#ffcd5f;fill-opacity:0.44;"/><g id="imagoback" opacity="0.29"><path id="path41" serif:id="path4" d="M2084.114,1576.685l-0,192.943c-159.225,-160.516 -339.358,-239.963 -540.4,-239.963c-236.425,0 -432.641,87.554 -590.258,264.284c11.258,-1.621 22.517,-1.621 35.383,-1.621c144.75,0 266.983,102.147 299.15,239.963c88.458,-90.797 197.825,-136.195 324.883,-136.195c146.358,0 265.375,51.884 357.05,157.273c91.675,107.011 138.317,243.206 138.317,406.965c0,167.002 -46.642,303.197 -139.925,406.965c-91.675,103.768 -212.3,155.652 -360.266,155.652c-139.925,0 -254.117,-53.505 -345.791,-162.137c-90.067,-105.389 -136.708,-243.206 -136.708,-413.45c0,-24.321 1.608,-48.641 3.217,-72.962c-43.425,22.699 -91.675,35.67 -143.142,35.67c-107.758,0 -202.65,-56.748 -257.333,-141.06c-9.65,61.612 -16.083,128.089 -16.083,196.186c0,262.663 78.808,483.169 234.817,658.278c154.4,175.108 350.616,261.041 585.433,261.041c205.867,0 387.608,-82.69 546.833,-246.449l0,807.444c57.9,-48.641 131.883,-77.826 213.908,-77.826c70.767,0 136.708,22.699 191.392,59.991l0,-2350.992l-400.475,0Z" style="fill:#659ed5;fill-rule:nonzero;"/><path id="path61" serif:id="path6" d="M5469.653,2226.856c-154.4,-66.476 -233.208,-132.953 -233.208,-199.429c0,-38.913 12.867,-69.719 38.6,-94.04c25.733,-24.321 57.9,-37.292 94.892,-37.292c14.475,0 28.95,1.621 43.425,6.485l0,-6.485c0,-142.681 90.067,-265.905 215.517,-314.547c-67.55,-32.427 -144.75,-50.263 -228.383,-50.263c-151.183,0 -279.85,50.263 -386,149.166c-104.542,100.525 -156.008,225.371 -156.008,379.401c0,115.118 30.558,209.157 91.675,283.74c48.25,58.369 130.275,115.118 247.683,173.487c41.817,21.078 83.633,40.534 123.842,59.991c40.208,19.456 80.417,38.913 122.233,59.991c104.542,63.234 157.617,129.71 157.617,202.672c0,124.846 -67.55,188.079 -204.258,188.079c-67.55,0 -127.058,-22.699 -175.308,-68.098c-25.733,-22.699 -61.117,-76.205 -109.367,-160.516l-344.183,160.516c122.233,282.119 329.708,426.421 620.816,426.421c170.483,0 316.841,-53.505 435.858,-162.137c123.842,-113.496 186.567,-256.177 186.567,-426.421c0,-132.953 -36.992,-236.721 -110.975,-316.168c-72.375,-76.205 -217.125,-162.137 -431.033,-254.556Z" style="fill:#659ed5;fill-rule:nonzero;"/><path id="path81" serif:id="path8" d="M6820.653,707.628c25.733,-51.884 73.983,-77.826 144.75,-77.826c56.292,0 127.058,22.699 213.908,66.476l41.817,21.078l0,-415.072c-107.758,-42.156 -197.825,-63.234 -270.2,-63.234c-201.042,0 -353.833,63.234 -458.375,191.322c-75.592,90.797 -114.192,248.07 -114.192,468.577l0,677.734l-143.142,0l0,379.401l143.142,0l0,1021.466c49.858,-56.748 123.842,-94.04 204.258,-94.04c78.808,0 149.575,34.049 199.433,87.554l0,-1014.98l439.075,0l0,-379.401l-439.075,0l0,-578.83c1.608,-142.681 14.475,-239.963 38.6,-290.226Z" style="fill:#659ed5;fill-rule:nonzero;"/><path id="path101" serif:id="path10" d="M4313.262,1782.599c1.608,0 1.608,0 0,0c-176.917,-168.623 -392.433,-252.934 -643.333,-252.934c-250.9,0 -466.416,84.311 -643.333,252.934c144.75,0 268.592,94.04 315.233,225.371c88.458,-74.583 197.825,-111.875 328.1,-111.875c131.883,0 241.25,37.292 329.708,110.253c46.642,-129.71 168.875,-223.75 313.625,-223.75Z" style="fill:#659ed5;fill-rule:nonzero;"/><path id="path121" serif:id="path12" d="M4001.246,2914.318c-88.458,72.962 -197.825,108.632 -331.316,108.632c-131.883,0 -241.25,-37.292 -329.708,-110.253c-46.642,129.71 -168.875,222.128 -313.625,222.128c172.092,167.002 384.391,249.692 635.291,249.692c255.725,0 472.85,-82.69 651.375,-249.692c-143.142,1.621 -266.983,-90.797 -312.016,-220.507Z" style="fill:#659ed5;fill-rule:nonzero;"/><ellipse id="circle141" serif:id="circle14" cx="6581.011" cy="3194.816" rx="209.083" ry="210.779" style="fill:#ffcd5f;"/><ellipse id="circle161" serif:id="circle16" cx="5735.028" cy="1865.29" rx="209.083" ry="210.779" style="fill:#ffcd5f;"/><ellipse id="circle181" serif:id="circle18" cx="988.839" cy="2102.01" rx="209.083" ry="210.779" style="fill:#ffcd5f;"/><ellipse id="circle202" serif:id="circle20" cx="2285.155" cy="4178.99" rx="209.083" ry="210.779" style="fill:#ffcd5f;"/><ellipse id="circle221" serif:id="circle22" cx="4310.045" cy="2085.796" rx="209.083" ry="210.779" style="fill:#ffcd5f;"/><ellipse id="circle241" serif:id="circle24" cx="4308.437" cy="2830.007" rx="209.083" ry="210.779" style="fill:#ffcd5f;"/><ellipse id="circle261" serif:id="circle26" cx="3021.771" cy="2831.628" rx="209.083" ry="210.779" style="fill:#ffcd5f;"/><ellipse id="circle281" serif:id="circle28" cx="3023.38" cy="2087.417" rx="209.083" ry="210.779" style="fill:#ffcd5f;"/></g><g id="Button"><path d="M7769.651,4191.713c0,74.815 -60.74,135.555 -135.555,135.555l-529.948,0c-74.815,0 -135.555,-60.74 -135.555,-135.555c0,-74.815 60.74,-135.555 135.555,-135.555l529.948,0c74.815,0 135.555,60.74 135.555,135.555Z" style="fill:#659ed5;"/><g transform="matrix(133.333333,0,0,133.333333,7083.455182,4241.179622)"><path d="M0.301,0.008c-0.05,0 -0.096,-0.011 -0.136,-0.034c-0.041,-0.023 -0.073,-0.055 -0.097,-0.096c-0.024,-0.041 -0.035,-0.09 -0.035,-0.146c0,-0.056 0.012,-0.105 0.035,-0.146c0.024,-0.041 0.056,-0.073 0.097,-0.096c0.041,-0.023 0.086,-0.034 0.136,-0.034c0.047,0 0.088,0.01 0.122,0.03c0.034,0.02 0.06,0.05 0.078,0.091c0.018,0.041 0.027,0.093 0.027,0.156c0,0.063 -0.009,0.114 -0.028,0.155c-0.019,0.041 -0.045,0.071 -0.079,0.091c-0.034,0.02 -0.074,0.03 -0.119,0.03Zm0.027,-0.128c0.026,0 0.049,-0.006 0.07,-0.018c0.021,-0.012 0.037,-0.029 0.049,-0.051c0.012,-0.022 0.018,-0.049 0.018,-0.08c0,-0.031 -0.006,-0.058 -0.018,-0.08c-0.012,-0.022 -0.029,-0.039 -0.049,-0.051c-0.021,-0.012 -0.044,-0.018 -0.07,-0.018c-0.026,0 -0.049,0.006 -0.07,0.018c-0.021,0.012 -0.037,0.029 -0.049,0.051c-0.012,0.022 -0.018,0.049 -0.018,0.08c0,0.031 0.006,0.057 0.018,0.08c0.012,0.022 0.029,0.04 0.049,0.051c0.021,0.012 0.044,0.018 0.07,0.018Zm0.134,0.314l0,-0.303l0.01,-0.16l-0.003,-0.16l0,-0.11l0.149,0l0,0.732l-0.156,0Z" style="fill:#e8f2fc;fill-rule:nonzero;"/></g><g transform="matrix(133.333333,0,0,133.333333,7175.455182,4241.179622)"><path d="M0.328,0.008c-0.057,0 -0.108,-0.012 -0.152,-0.036c-0.044,-0.024 -0.079,-0.056 -0.105,-0.098c-0.026,-0.042 -0.038,-0.089 -0.038,-0.143c0,-0.054 0.013,-0.102 0.038,-0.143c0.026,-0.041 0.06,-0.074 0.105,-0.098c0.044,-0.024 0.095,-0.035 0.152,-0.035c0.057,0 0.108,0.012 0.153,0.035c0.045,0.024 0.079,0.056 0.105,0.097c0.025,0.041 0.038,0.089 0.038,0.143c0,0.054 -0.013,0.102 -0.038,0.143c-0.025,0.042 -0.06,0.074 -0.105,0.098c-0.045,0.024 -0.096,0.036 -0.152,0.036Zm0,-0.128c0.026,0 0.05,-0.006 0.07,-0.018c0.021,-0.012 0.037,-0.029 0.049,-0.052c0.012,-0.023 0.018,-0.049 0.018,-0.08c0,-0.031 -0.006,-0.058 -0.018,-0.08c-0.012,-0.022 -0.028,-0.039 -0.049,-0.051c-0.021,-0.012 -0.044,-0.018 -0.07,-0.018c-0.026,0 -0.049,0.006 -0.07,0.018c-0.021,0.012 -0.037,0.029 -0.049,0.051c-0.012,0.022 -0.018,0.049 -0.018,0.08c0,0.031 0.006,0.057 0.018,0.08c0.012,0.023 0.029,0.04 0.049,0.052c0.021,0.012 0.044,0.018 0.07,0.018Z" style="fill:#e8f2fc;fill-rule:nonzero;"/></g><g transform="matrix(133.333333,0,0,133.333333,7262.788516,4241.179622)"><path d="M0.253,0.008c-0.045,0 -0.089,-0.006 -0.132,-0.017c-0.042,-0.011 -0.076,-0.025 -0.101,-0.041l0.052,-0.112c0.024,0.015 0.053,0.028 0.087,0.037c0.034,0.009 0.067,0.014 0.1,0.014c0.036,0 0.061,-0.004 0.076,-0.013c0.015,-0.009 0.023,-0.021 0.023,-0.036c0,-0.012 -0.006,-0.022 -0.018,-0.028c-0.012,-0.006 -0.027,-0.011 -0.046,-0.015c-0.019,-0.003 -0.04,-0.007 -0.064,-0.01c-0.023,-0.003 -0.046,-0.008 -0.07,-0.014c-0.023,-0.006 -0.045,-0.014 -0.064,-0.025c-0.019,-0.011 -0.035,-0.026 -0.046,-0.046c-0.012,-0.019 -0.018,-0.044 -0.018,-0.075c0,-0.034 0.01,-0.064 0.03,-0.09c0.02,-0.026 0.048,-0.046 0.085,-0.061c0.037,-0.015 0.082,-0.022 0.134,-0.022c0.037,0 0.075,0.004 0.112,0.012c0.038,0.008 0.069,0.019 0.095,0.034l-0.052,0.112c-0.026,-0.015 -0.052,-0.026 -0.078,-0.031c-0.026,-0.006 -0.052,-0.009 -0.076,-0.009c-0.035,0 -0.061,0.005 -0.077,0.014c-0.016,0.009 -0.024,0.021 -0.024,0.035c0,0.013 0.006,0.023 0.018,0.03c0.012,0.007 0.027,0.012 0.047,0.016c0.019,0.004 0.04,0.007 0.064,0.011c0.023,0.003 0.046,0.008 0.069,0.014c0.023,0.006 0.044,0.014 0.064,0.025c0.019,0.011 0.035,0.026 0.047,0.045c0.012,0.019 0.018,0.044 0.018,0.074c0,0.033 -0.01,0.062 -0.03,0.088c-0.02,0.026 -0.049,0.046 -0.086,0.06c-0.038,0.015 -0.084,0.022 -0.138,0.022Z" style="fill:#e8f2fc;fill-rule:nonzero;"/></g><g transform="matrix(133.333333,0,0,133.333333,7333.588516,4241.179622)"><path d="M0.091,-0l0,-0.55c0,-0.061 0.018,-0.109 0.054,-0.145c0.036,-0.036 0.087,-0.054 0.154,-0.054c0.022,-0 0.044,0.002 0.065,0.007c0.021,0.005 0.039,0.012 0.054,0.021l-0.041,0.113c-0.009,-0.006 -0.018,-0.01 -0.029,-0.014c-0.011,-0.003 -0.022,-0.005 -0.034,-0.005c-0.023,0 -0.04,0.007 -0.053,0.02c-0.012,0.013 -0.019,0.033 -0.019,0.059l0,0.05l0.005,0.067l0,0.432l-0.156,-0Zm-0.083,-0.406l0,-0.12l0.373,0l0,0.12l-0.373,0Z" style="fill:#e8f2fc;fill-rule:nonzero;"/></g><g transform="matrix(133.333333,0,0,133.333333,7383.855182,4241.179622)"><path d="M0.131,0.008c-0.027,0 -0.05,-0.009 -0.069,-0.027c-0.019,-0.018 -0.028,-0.042 -0.028,-0.07c0,-0.029 0.009,-0.052 0.028,-0.07c0.019,-0.018 0.042,-0.027 0.069,-0.027c0.027,0 0.05,0.009 0.069,0.027c0.019,0.018 0.028,0.041 0.028,0.07c-0,0.028 -0.009,0.052 -0.028,0.07c-0.019,0.018 -0.042,0.027 -0.069,0.027Z" style="fill:#e8f2fc;fill-rule:nonzero;"/></g><g transform="matrix(133.333333,0,0,133.333333,7417.855182,4241.179622)"><path d="M0.328,0.008c-0.057,0 -0.108,-0.012 -0.152,-0.036c-0.044,-0.024 -0.079,-0.056 -0.105,-0.098c-0.026,-0.042 -0.038,-0.089 -0.038,-0.143c0,-0.054 0.013,-0.102 0.038,-0.143c0.026,-0.041 0.06,-0.074 0.105,-0.098c0.044,-0.024 0.095,-0.035 0.152,-0.035c0.057,0 0.108,0.012 0.153,0.035c0.045,0.024 0.079,0.056 0.105,0.097c0.025,0.041 0.038,0.089 0.038,0.143c0,0.054 -0.013,0.102 -0.038,0.143c-0.025,0.042 -0.06,0.074 -0.105,0.098c-0.045,0.024 -0.096,0.036 -0.152,0.036Zm0,-0.128c0.026,0 0.05,-0.006 0.07,-0.018c0.021,-0.012 0.037,-0.029 0.049,-0.052c0.012,-0.023 0.018,-0.049 0.018,-0.08c0,-0.031 -0.006,-0.058 -0.018,-0.08c-0.012,-0.022 -0.028,-0.039 -0.049,-0.051c-0.021,-0.012 -0.044,-0.018 -0.07,-0.018c-0.026,0 -0.049,0.006 -0.07,0.018c-0.021,0.012 -0.037,0.029 -0.049,0.051c-0.012,0.022 -0.018,0.049 -0.018,0.08c0,0.031 0.006,0.057 0.018,0.08c0.012,0.023 0.029,0.04 0.049,0.052c0.021,0.012 0.044,0.018 0.07,0.018Z" style="fill:#e8f2fc;fill-rule:nonzero;"/></g><g transform="matrix(133.333333,0,0,133.333333,7505.188516,4241.179622)"><path d="M0.072,-0l0,-0.538l0.149,0l-0,0.152l-0.021,-0.044c0.016,-0.038 0.041,-0.067 0.077,-0.087c0.035,-0.02 0.078,-0.029 0.129,-0.029l0,0.144c-0.007,-0.001 -0.013,-0.002 -0.018,-0.002c-0.005,-0 -0.011,-0.001 -0.017,-0.001c-0.043,0 -0.078,0.012 -0.104,0.037c-0.026,0.025 -0.039,0.062 -0.039,0.114l0,0.254l-0.156,-0Z" style="fill:#e8f2fc;fill-rule:nonzero;"/></g><g transform="matrix(133.333333,0,0,133.333333,7561.455182,4241.179622)"><path d="M0.325,0.202c-0.051,0 -0.1,-0.006 -0.147,-0.019c-0.047,-0.012 -0.086,-0.031 -0.118,-0.055l0.062,-0.112c0.023,0.019 0.052,0.034 0.087,0.045c0.035,0.011 0.07,0.017 0.104,0.017c0.055,0 0.095,-0.012 0.12,-0.037c0.025,-0.025 0.038,-0.061 0.038,-0.11l0,-0.08l0.01,-0.136l-0.003,-0.136l0,-0.116l0.149,0l0,0.448c0,0.1 -0.026,0.173 -0.078,0.22c-0.052,0.047 -0.127,0.071 -0.224,0.071Zm-0.024,-0.227c-0.05,0 -0.095,-0.011 -0.135,-0.032c-0.041,-0.022 -0.073,-0.052 -0.097,-0.091c-0.024,-0.039 -0.036,-0.085 -0.036,-0.137c0,-0.052 0.012,-0.098 0.036,-0.137c0.024,-0.039 0.056,-0.069 0.097,-0.09c0.041,-0.021 0.086,-0.032 0.135,-0.032c0.046,0 0.086,0.009 0.12,0.027c0.034,0.018 0.061,0.047 0.081,0.085c0.02,0.038 0.029,0.087 0.029,0.147c0,0.06 -0.01,0.109 -0.029,0.147c-0.019,0.038 -0.046,0.067 -0.081,0.085c-0.034,0.019 -0.074,0.028 -0.12,0.028Zm0.031,-0.128c0.028,0 0.052,-0.006 0.073,-0.017c0.021,-0.011 0.038,-0.027 0.05,-0.047c0.012,-0.02 0.018,-0.043 0.018,-0.069c0,-0.026 -0.006,-0.05 -0.018,-0.069c-0.012,-0.02 -0.029,-0.035 -0.05,-0.046c-0.021,-0.011 -0.046,-0.016 -0.073,-0.016c-0.027,0 -0.051,0.005 -0.073,0.016c-0.022,0.011 -0.038,0.026 -0.051,0.046c-0.012,0.02 -0.018,0.043 -0.018,0.069c0,0.026 0.006,0.049 0.018,0.069c0.012,0.02 0.029,0.036 0.051,0.047c0.022,0.011 0.046,0.017 0.073,0.017Z" style="fill:#e8f2fc;fill-rule:nonzero;"/></g><g transform="matrix(133.333333,0,0,133.333333,7654.788516,4241.179622)"></g></g><g id="Title" transform="matrix(208.333333,0,0,208.333333,2878.798522,4269.004622)"><path d="M0.423,0.014c-0.056,0 -0.107,-0.009 -0.155,-0.027c-0.048,-0.018 -0.089,-0.043 -0.124,-0.076c-0.035,-0.033 -0.062,-0.071 -0.081,-0.116c-0.019,-0.044 -0.029,-0.093 -0.029,-0.145c0,-0.053 0.01,-0.101 0.029,-0.145c0.019,-0.044 0.046,-0.083 0.081,-0.115c0.035,-0.033 0.076,-0.058 0.123,-0.076c0.047,-0.018 0.099,-0.027 0.155,-0.027c0.056,0 0.108,0.009 0.155,0.027c0.047,0.018 0.088,0.043 0.123,0.076c0.035,0.033 0.062,0.071 0.081,0.115c0.019,0.044 0.029,0.093 0.029,0.146c0,0.052 -0.01,0.101 -0.029,0.145c-0.019,0.044 -0.046,0.083 -0.081,0.116c-0.035,0.033 -0.076,0.058 -0.123,0.076c-0.047,0.018 -0.099,0.027 -0.155,0.027Zm0.229,0.155c-0.03,0 -0.058,-0.003 -0.084,-0.009c-0.026,-0.006 -0.052,-0.016 -0.077,-0.03c-0.025,-0.014 -0.051,-0.033 -0.078,-0.057c-0.027,-0.024 -0.057,-0.054 -0.09,-0.089l0.206,-0.051c0.017,0.025 0.032,0.044 0.045,0.058c0.013,0.014 0.026,0.024 0.039,0.03c0.013,0.006 0.027,0.009 0.042,0.009c0.039,-0 0.074,-0.016 0.105,-0.049l0.087,0.103c-0.049,0.058 -0.114,0.087 -0.196,0.087Zm-0.229,-0.318c0.027,0 0.052,-0.005 0.074,-0.014c0.023,-0.009 0.043,-0.023 0.06,-0.041c0.017,-0.018 0.03,-0.039 0.04,-0.063c0.01,-0.025 0.014,-0.052 0.014,-0.082c0,-0.03 -0.005,-0.058 -0.014,-0.082c-0.01,-0.025 -0.023,-0.046 -0.04,-0.063c-0.017,-0.018 -0.037,-0.031 -0.06,-0.041c-0.023,-0.009 -0.048,-0.014 -0.074,-0.014c-0.027,0 -0.052,0.005 -0.075,0.014c-0.023,0.009 -0.043,0.023 -0.06,0.041c-0.017,0.018 -0.03,0.039 -0.04,0.063c-0.01,0.025 -0.014,0.052 -0.014,0.082c-0,0.03 0.005,0.058 0.014,0.082c0.01,0.025 0.023,0.046 0.04,0.063c0.017,0.018 0.037,0.031 0.06,0.041c0.023,0.009 0.048,0.014 0.075,0.014Z" style="fill:#659ed5;fill-opacity:0.21;fill-rule:nonzero;"/></g><g transform="matrix(208.333333,0,0,208.333333,3055.048522,4269.004622)"><path d="M0.289,0.009c-0.044,0 -0.084,-0.009 -0.119,-0.026c-0.035,-0.017 -0.062,-0.044 -0.082,-0.081c-0.02,-0.037 -0.03,-0.084 -0.03,-0.141l0,-0.303l0.19,0l0,0.272c0,0.042 0.008,0.072 0.024,0.09c0.016,0.018 0.038,0.027 0.067,0.027c0.019,0 0.036,-0.004 0.051,-0.013c0.015,-0.009 0.027,-0.023 0.037,-0.042c0.009,-0.019 0.014,-0.043 0.014,-0.073l0,-0.262l0.19,0l0,0.542l-0.181,-0l0,-0.153l0.035,0.043c-0.019,0.04 -0.046,0.069 -0.081,0.089c-0.035,0.02 -0.074,0.029 -0.115,0.029Z" style="fill:#659ed5;fill-opacity:0.21;fill-rule:nonzero;"/></g><g transform="matrix(208.333333,0,0,208.333333,3199.215188,4269.004622)"><path d="M0.392,-0l0,-0.101l-0.013,-0.025l0,-0.186c0,-0.03 -0.009,-0.053 -0.028,-0.07c-0.018,-0.016 -0.047,-0.024 -0.087,-0.024c-0.027,0 -0.053,0.004 -0.08,0.012c-0.027,0.008 -0.049,0.02 -0.068,0.034l-0.064,-0.128c0.031,-0.021 0.068,-0.036 0.111,-0.047c0.043,-0.011 0.086,-0.016 0.128,-0.016c0.088,0 0.156,0.02 0.205,0.06c0.048,0.04 0.073,0.104 0.073,0.19l0,0.301l-0.177,-0Zm-0.159,0.009c-0.043,0 -0.08,-0.007 -0.11,-0.022c-0.03,-0.015 -0.053,-0.035 -0.068,-0.06c-0.016,-0.025 -0.023,-0.053 -0.023,-0.084c0,-0.033 0.008,-0.062 0.025,-0.087c0.017,-0.024 0.043,-0.043 0.078,-0.056c0.035,-0.013 0.081,-0.02 0.137,-0.02l0.129,0l0,0.1l-0.102,0c-0.031,0 -0.052,0.005 -0.064,0.015c-0.012,0.01 -0.019,0.023 -0.019,0.04c0,0.016 0.006,0.029 0.019,0.039c0.013,0.01 0.03,0.015 0.052,0.015c0.021,0 0.04,-0.005 0.057,-0.015c0.017,-0.01 0.029,-0.026 0.037,-0.047l0.026,0.07c-0.01,0.037 -0.029,0.066 -0.058,0.084c-0.029,0.019 -0.067,0.028 -0.115,0.028Z" style="fill:#659ed5;fill-opacity:0.21;fill-rule:nonzero;"/></g><g transform="matrix(208.333333,0,0,208.333333,3330.048522,4269.004622)"><path d="M0.061,-0l0,-0.542l0.181,0l0,0.154l-0.035,-0.045c0.02,-0.039 0.048,-0.068 0.085,-0.088c0.036,-0.02 0.077,-0.03 0.122,-0.03c0.042,0 0.081,0.008 0.114,0.025c0.034,0.017 0.06,0.043 0.08,0.079c0.02,0.035 0.029,0.081 0.029,0.137l0,0.31l-0.19,-0l0,-0.279c0,-0.039 -0.008,-0.067 -0.023,-0.084c-0.016,-0.018 -0.037,-0.026 -0.065,-0.026c-0.02,0 -0.039,0.004 -0.055,0.013c-0.016,0.009 -0.029,0.022 -0.039,0.041c-0.009,0.019 -0.014,0.043 -0.014,0.074l0,0.262l-0.19,-0Z" style="fill:#659ed5;fill-opacity:0.21;fill-rule:nonzero;"/></g><g transform="matrix(208.333333,0,0,208.333333,3475.048522,4269.004622)"><path d="M0.303,0.009c-0.069,0 -0.123,-0.017 -0.162,-0.051c-0.038,-0.034 -0.058,-0.086 -0.058,-0.156l0,-0.465l0.19,0l0,0.463c0,0.02 0.005,0.035 0.016,0.046c0.01,0.011 0.024,0.016 0.041,0.016c0.022,0 0.041,-0.006 0.058,-0.017l0.047,0.133c-0.017,0.011 -0.036,0.018 -0.06,0.024c-0.023,0.005 -0.048,0.008 -0.073,0.008Zm-0.299,-0.409l0,-0.142l0.393,0l0,0.142l-0.393,0Z" style="fill:#659ed5;fill-opacity:0.21;fill-rule:nonzero;"/></g><g transform="matrix(208.333333,0,0,208.333333,3568.173522,4269.004622)"><path d="M0.289,0.009c-0.044,0 -0.084,-0.009 -0.119,-0.026c-0.035,-0.017 -0.062,-0.044 -0.082,-0.081c-0.02,-0.037 -0.03,-0.084 -0.03,-0.141l0,-0.303l0.19,0l0,0.272c0,0.042 0.008,0.072 0.024,0.09c0.016,0.018 0.038,0.027 0.067,0.027c0.019,0 0.036,-0.004 0.051,-0.013c0.015,-0.009 0.027,-0.023 0.037,-0.042c0.009,-0.019 0.014,-0.043 0.014,-0.073l0,-0.262l0.19,0l0,0.542l-0.181,-0l0,-0.153l0.035,0.043c-0.019,0.04 -0.046,0.069 -0.081,0.089c-0.035,0.02 -0.074,0.029 -0.115,0.029Z" style="fill:#659ed5;fill-opacity:0.21;fill-rule:nonzero;"/></g><g transform="matrix(208.333333,0,0,208.333333,3712.340188,4269.004622)"><path d="M0.061,-0l0,-0.542l0.181,0l0,0.152l-0.036,-0.043c0.02,-0.039 0.047,-0.068 0.081,-0.088c0.035,-0.02 0.073,-0.029 0.117,-0.029c0.049,0 0.091,0.012 0.128,0.037c0.037,0.025 0.062,0.064 0.074,0.116l-0.062,-0.013c0.019,-0.043 0.048,-0.078 0.087,-0.103c0.039,-0.025 0.084,-0.038 0.135,-0.038c0.042,0 0.079,0.008 0.112,0.025c0.033,0.017 0.059,0.043 0.078,0.079c0.019,0.035 0.028,0.081 0.028,0.137l0,0.31l-0.19,-0l0,-0.279c0,-0.039 -0.007,-0.067 -0.022,-0.084c-0.015,-0.018 -0.035,-0.026 -0.06,-0.026c-0.018,0 -0.035,0.004 -0.049,0.013c-0.014,0.009 -0.026,0.022 -0.034,0.039c-0.008,0.018 -0.012,0.041 -0.012,0.069l0,0.269l-0.19,-0l0,-0.279c0,-0.039 -0.007,-0.067 -0.021,-0.084c-0.014,-0.018 -0.035,-0.026 -0.061,-0.026c-0.018,0 -0.035,0.004 -0.049,0.013c-0.014,0.009 -0.026,0.022 -0.034,0.039c-0.008,0.018 -0.012,0.041 -0.012,0.069l0,0.269l-0.19,-0Z" style="fill:#659ed5;fill-opacity:0.21;fill-rule:nonzero;"/></g><g transform="matrix(208.333333,0,0,208.333333,3930.048522,4269.004622)"></g><g transform="matrix(208.333333,0,0,208.333333,3990.673522,4269.004622)"><path d="M0.423,0.014c-0.056,0 -0.108,-0.009 -0.155,-0.027c-0.048,-0.018 -0.089,-0.043 -0.124,-0.076c-0.035,-0.033 -0.062,-0.071 -0.081,-0.116c-0.019,-0.044 -0.029,-0.093 -0.029,-0.145c0,-0.053 0.01,-0.101 0.029,-0.145c0.019,-0.044 0.046,-0.082 0.081,-0.115c0.035,-0.033 0.076,-0.058 0.123,-0.076c0.047,-0.018 0.099,-0.027 0.155,-0.027c0.056,0 0.108,0.009 0.155,0.027c0.047,0.018 0.088,0.043 0.123,0.076c0.035,0.033 0.062,0.071 0.081,0.115c0.019,0.044 0.029,0.092 0.029,0.145c0,0.053 -0.01,0.101 -0.029,0.146c-0.019,0.044 -0.046,0.083 -0.081,0.116c-0.035,0.033 -0.076,0.058 -0.123,0.076c-0.047,0.018 -0.099,0.027 -0.155,0.027Zm-0,-0.163c0.027,0 0.052,-0.005 0.074,-0.014c0.023,-0.009 0.043,-0.023 0.06,-0.041c0.017,-0.018 0.03,-0.039 0.04,-0.063c0.01,-0.025 0.014,-0.052 0.014,-0.082c0,-0.03 -0.005,-0.058 -0.014,-0.082c-0.01,-0.025 -0.023,-0.046 -0.04,-0.063c-0.017,-0.018 -0.037,-0.031 -0.06,-0.041c-0.023,-0.009 -0.048,-0.014 -0.074,-0.014c-0.027,0 -0.052,0.005 -0.075,0.014c-0.023,0.009 -0.043,0.023 -0.06,0.041c-0.017,0.018 -0.031,0.039 -0.04,0.063c-0.01,0.025 -0.014,0.052 -0.014,0.082c-0,0.03 0.005,0.058 0.014,0.082c0.01,0.025 0.023,0.046 0.04,0.063c0.017,0.018 0.037,0.031 0.06,0.041c0.023,0.009 0.048,0.014 0.075,0.014Z" style="fill:#659ed5;fill-opacity:0.21;fill-rule:nonzero;"/></g><g transform="matrix(208.333333,0,0,208.333333,4166.923522,4269.004622)"><path d="M0.402,0.009c-0.046,0 -0.085,-0.01 -0.118,-0.03c-0.033,-0.02 -0.057,-0.051 -0.074,-0.092c-0.017,-0.041 -0.025,-0.094 -0.025,-0.157c0,-0.065 0.008,-0.118 0.024,-0.159c0.016,-0.041 0.04,-0.072 0.073,-0.092c0.032,-0.02 0.073,-0.03 0.121,-0.03c0.049,0 0.094,0.011 0.134,0.034c0.04,0.023 0.072,0.055 0.096,0.097c0.024,0.042 0.036,0.091 0.036,0.149c0,0.057 -0.012,0.107 -0.036,0.149c-0.024,0.042 -0.056,0.074 -0.096,0.097c-0.04,0.023 -0.085,0.034 -0.134,0.034Zm-0.34,0.185l0,-0.736l0.181,0l0,0.093l-0.001,0.179l0.01,0.179l0,0.285l-0.19,0Zm0.3,-0.336c0.021,-0 0.041,-0.005 0.058,-0.015c0.017,-0.01 0.031,-0.025 0.041,-0.044c0.01,-0.019 0.015,-0.042 0.015,-0.07c-0,-0.028 -0.005,-0.051 -0.015,-0.07c-0.01,-0.019 -0.024,-0.034 -0.041,-0.044c-0.017,-0.01 -0.036,-0.015 -0.058,-0.015c-0.021,0 -0.041,0.005 -0.058,0.015c-0.017,0.01 -0.031,0.025 -0.041,0.044c-0.01,0.019 -0.015,0.043 -0.015,0.07c0,0.027 0.005,0.05 0.015,0.07c0.01,0.019 0.024,0.034 0.041,0.044c0.017,0.01 0.036,0.015 0.058,0.015Z" style="fill:#659ed5;fill-opacity:0.21;fill-rule:nonzero;"/></g><g transform="matrix(208.333333,0,0,208.333333,4311.715188,4269.004622)"><path d="M0.345,0.009c-0.064,0 -0.12,-0.012 -0.168,-0.036c-0.048,-0.024 -0.085,-0.058 -0.111,-0.1c-0.026,-0.042 -0.039,-0.09 -0.039,-0.144c0,-0.055 0.013,-0.103 0.039,-0.145c0.026,-0.042 0.061,-0.075 0.106,-0.099c0.045,-0.024 0.096,-0.036 0.153,-0.036c0.053,0 0.102,0.011 0.146,0.033c0.044,0.022 0.079,0.054 0.105,0.095c0.026,0.042 0.039,0.093 0.039,0.153c0,0.007 -0,0.015 -0.001,0.023c-0.001,0.009 -0.001,0.017 -0.002,0.024l-0.429,0l0,-0.1l0.329,0l-0.072,0.028c0,-0.025 -0.005,-0.046 -0.014,-0.064c-0.01,-0.018 -0.023,-0.032 -0.04,-0.042c-0.017,-0.01 -0.037,-0.015 -0.059,-0.015c-0.023,0 -0.043,0.005 -0.06,0.015c-0.017,0.01 -0.03,0.024 -0.04,0.042c-0.009,0.018 -0.014,0.04 -0.014,0.065l0,0.029c0,0.026 0.006,0.049 0.017,0.069c0.011,0.019 0.027,0.034 0.048,0.044c0.021,0.01 0.045,0.015 0.074,0.015c0.027,0 0.05,-0.004 0.069,-0.012c0.019,-0.008 0.038,-0.019 0.056,-0.035l0.1,0.104c-0.026,0.028 -0.058,0.05 -0.096,0.065c-0.038,0.015 -0.083,0.022 -0.135,0.022Z" style="fill:#659ed5;fill-opacity:0.21;fill-rule:nonzero;"/></g><g transform="matrix(208.333333,0,0,208.333333,4445.465188,4269.004622)"><path d="M0.061,-0l0,-0.542l0.181,0l0,0.154l-0.035,-0.045c0.02,-0.039 0.048,-0.068 0.085,-0.088c0.036,-0.02 0.077,-0.03 0.122,-0.03c0.042,0 0.081,0.008 0.114,0.025c0.034,0.017 0.06,0.043 0.08,0.079c0.02,0.035 0.029,0.081 0.029,0.137l0,0.31l-0.19,-0l0,-0.279c0,-0.039 -0.008,-0.067 -0.023,-0.084c-0.016,-0.018 -0.037,-0.026 -0.065,-0.026c-0.02,0 -0.039,0.004 -0.055,0.013c-0.016,0.009 -0.029,0.022 -0.039,0.041c-0.009,0.019 -0.014,0.043 -0.014,0.074l0,0.262l-0.19,-0Z" style="fill:#659ed5;fill-opacity:0.21;fill-rule:nonzero;"/></g><g transform="matrix(208.333333,0,0,208.333333,4590.465188,4269.004622)"></g><g transform="matrix(208.333333,0,0,208.333333,4651.090188,4269.004622)"><path d="M0.316,0.014c-0.057,0 -0.112,-0.007 -0.165,-0.021c-0.053,-0.014 -0.096,-0.033 -0.129,-0.055l0.065,-0.147c0.031,0.02 0.068,0.037 0.109,0.05c0.041,0.013 0.082,0.019 0.122,0.019c0.028,0 0.05,-0.002 0.066,-0.007c0.016,-0.005 0.028,-0.011 0.036,-0.02c0.008,-0.009 0.011,-0.019 0.011,-0.03c-0,-0.016 -0.007,-0.028 -0.022,-0.038c-0.014,-0.009 -0.033,-0.017 -0.057,-0.023c-0.024,-0.006 -0.049,-0.012 -0.078,-0.018c-0.028,-0.006 -0.056,-0.014 -0.085,-0.023c-0.028,-0.009 -0.054,-0.021 -0.078,-0.036c-0.024,-0.015 -0.042,-0.035 -0.057,-0.059c-0.014,-0.025 -0.022,-0.056 -0.022,-0.093c0,-0.041 0.011,-0.079 0.034,-0.114c0.023,-0.034 0.057,-0.062 0.103,-0.082c0.046,-0.021 0.103,-0.031 0.173,-0.031c0.045,0 0.09,0.005 0.135,0.015c0.044,0.01 0.084,0.026 0.118,0.046l-0.06,0.146c-0.033,-0.018 -0.066,-0.031 -0.099,-0.04c-0.033,-0.009 -0.064,-0.013 -0.095,-0.013c-0.027,0 -0.049,0.003 -0.066,0.008c-0.017,0.006 -0.029,0.013 -0.036,0.023c-0.007,0.009 -0.011,0.02 -0.011,0.031c0,0.015 0.007,0.028 0.022,0.037c0.014,0.009 0.033,0.016 0.057,0.022c0.024,0.006 0.049,0.011 0.078,0.017c0.028,0.006 0.057,0.013 0.085,0.022c0.028,0.009 0.054,0.021 0.078,0.036c0.024,0.015 0.042,0.035 0.057,0.059c0.014,0.024 0.022,0.055 0.022,0.092c0,0.041 -0.011,0.078 -0.034,0.113c-0.023,0.034 -0.057,0.062 -0.103,0.082c-0.046,0.021 -0.104,0.031 -0.173,0.031Z" style="fill:#659ed5;fill-opacity:0.21;fill-rule:nonzero;"/></g><g transform="matrix(208.333333,0,0,208.333333,4785.881855,4269.004622)"><path d="M0.333,0.009c-0.059,0 -0.112,-0.012 -0.158,-0.036c-0.046,-0.024 -0.082,-0.057 -0.109,-0.099c-0.026,-0.042 -0.04,-0.091 -0.04,-0.145c0,-0.055 0.013,-0.103 0.04,-0.145c0.026,-0.042 0.063,-0.075 0.108,-0.099c0.046,-0.024 0.099,-0.036 0.158,-0.036c0.06,0 0.112,0.012 0.159,0.036c0.046,0.024 0.082,0.057 0.108,0.099c0.026,0.042 0.039,0.09 0.039,0.145c0,0.055 -0.013,0.103 -0.039,0.145c-0.026,0.042 -0.062,0.075 -0.109,0.099c-0.046,0.024 -0.099,0.036 -0.159,0.036Zm0,-0.151c0.022,0 0.041,-0.005 0.058,-0.015c0.017,-0.01 0.031,-0.025 0.041,-0.044c0.01,-0.02 0.015,-0.043 0.015,-0.07c-0,-0.028 -0.005,-0.051 -0.015,-0.07c-0.01,-0.019 -0.024,-0.033 -0.041,-0.043c-0.017,-0.01 -0.036,-0.015 -0.058,-0.015c-0.022,0 -0.041,0.005 -0.058,0.015c-0.017,0.01 -0.031,0.024 -0.041,0.043c-0.01,0.019 -0.015,0.042 -0.015,0.07c0,0.027 0.005,0.05 0.015,0.07c0.01,0.02 0.024,0.034 0.041,0.044c0.017,0.01 0.036,0.015 0.058,0.015Z" style="fill:#659ed5;fill-opacity:0.21;fill-rule:nonzero;"/></g><g transform="matrix(208.333333,0,0,208.333333,4924.631855,4269.004622)"><path d="M0.289,0.009c-0.044,0 -0.084,-0.009 -0.119,-0.026c-0.035,-0.017 -0.062,-0.044 -0.082,-0.081c-0.02,-0.037 -0.03,-0.084 -0.03,-0.141l0,-0.303l0.19,0l0,0.272c0,0.042 0.008,0.072 0.024,0.09c0.016,0.018 0.038,0.027 0.067,0.027c0.019,0 0.036,-0.004 0.051,-0.013c0.015,-0.009 0.027,-0.023 0.037,-0.042c0.009,-0.019 0.014,-0.043 0.014,-0.073l0,-0.262l0.19,0l0,0.542l-0.181,-0l0,-0.153l0.035,0.043c-0.019,0.04 -0.046,0.069 -0.081,0.089c-0.035,0.02 -0.074,0.029 -0.115,0.029Z" style="fill:#659ed5;fill-opacity:0.21;fill-rule:nonzero;"/></g><g transform="matrix(208.333333,0,0,208.333333,5068.798522,4269.004622)"><path d="M0.061,-0l0,-0.542l0.181,0l0,0.158l-0.028,-0.045c0.016,-0.04 0.042,-0.071 0.078,-0.091c0.036,-0.02 0.079,-0.031 0.131,-0.031l0,0.171c-0.008,-0.001 -0.016,-0.002 -0.022,-0.003c-0.007,-0.001 -0.013,-0.001 -0.02,-0.001c-0.039,-0 -0.07,0.011 -0.094,0.032c-0.024,0.021 -0.036,0.056 -0.036,0.103l0,0.249l-0.19,-0Z" style="fill:#659ed5;fill-opacity:0.21;fill-rule:nonzero;"/></g><g transform="matrix(208.333333,0,0,208.333333,5159.631855,4269.004622)"><path d="M0.338,0.009c-0.06,0 -0.114,-0.012 -0.161,-0.036c-0.047,-0.024 -0.084,-0.057 -0.11,-0.099c-0.027,-0.042 -0.04,-0.091 -0.04,-0.145c0,-0.055 0.013,-0.103 0.04,-0.145c0.027,-0.042 0.063,-0.075 0.11,-0.099c0.047,-0.024 0.1,-0.036 0.161,-0.036c0.061,0 0.115,0.013 0.159,0.039c0.045,0.026 0.076,0.063 0.095,0.11l-0.147,0.075c-0.013,-0.025 -0.029,-0.044 -0.048,-0.055c-0.019,-0.012 -0.039,-0.017 -0.061,-0.017c-0.022,0 -0.041,0.005 -0.059,0.015c-0.018,0.01 -0.032,0.024 -0.043,0.043c-0.01,0.019 -0.016,0.042 -0.016,0.07c0,0.028 0.005,0.051 0.016,0.07c0.01,0.019 0.025,0.034 0.043,0.044c0.018,0.01 0.038,0.015 0.059,0.015c0.022,0 0.042,-0.006 0.061,-0.017c0.019,-0.012 0.035,-0.03 0.048,-0.056l0.147,0.075c-0.019,0.047 -0.051,0.083 -0.095,0.11c-0.045,0.026 -0.098,0.039 -0.159,0.039Z" style="fill:#659ed5;fill-opacity:0.21;fill-rule:nonzero;"/></g><g transform="matrix(208.333333,0,0,208.333333,5284.006855,4269.004622)"><path d="M0.345,0.009c-0.064,0 -0.12,-0.012 -0.168,-0.036c-0.048,-0.024 -0.085,-0.058 -0.111,-0.1c-0.026,-0.042 -0.039,-0.09 -0.039,-0.144c0,-0.055 0.013,-0.103 0.039,-0.145c0.026,-0.042 0.061,-0.075 0.106,-0.099c0.045,-0.024 0.096,-0.036 0.153,-0.036c0.053,0 0.102,0.011 0.146,0.033c0.044,0.022 0.079,0.054 0.105,0.095c0.026,0.042 0.039,0.093 0.039,0.153c0,0.007 -0,0.015 -0.001,0.023c-0.001,0.009 -0.001,0.017 -0.002,0.024l-0.429,0l0,-0.1l0.329,0l-0.072,0.028c0,-0.025 -0.005,-0.046 -0.014,-0.064c-0.01,-0.018 -0.023,-0.032 -0.04,-0.042c-0.017,-0.01 -0.037,-0.015 -0.059,-0.015c-0.023,0 -0.043,0.005 -0.06,0.015c-0.017,0.01 -0.03,0.024 -0.04,0.042c-0.009,0.018 -0.014,0.04 -0.014,0.065l0,0.029c0,0.026 0.006,0.049 0.017,0.069c0.011,0.019 0.027,0.034 0.048,0.044c0.021,0.01 0.045,0.015 0.074,0.015c0.027,0 0.05,-0.004 0.069,-0.012c0.019,-0.008 0.038,-0.019 0.056,-0.035l0.1,0.104c-0.026,0.028 -0.058,0.05 -0.096,0.065c-0.038,0.015 -0.083,0.022 -0.135,0.022Z" style="fill:#659ed5;fill-opacity:0.21;fill-rule:nonzero;"/></g><g transform="matrix(208.333333,0,0,208.333333,5417.756855,4269.004622)"></g><g transform="matrix(208.333333,0,0,208.333333,5478.381855,4269.004622)"><path d="M0.07,-0l0,-0.7l0.548,0l0,0.153l-0.35,0l0,0.547l-0.198,-0Zm0.184,-0.24l0,-0.153l0.323,0l0,0.153l-0.323,0Z" style="fill:#659ed5;fill-opacity:0.21;fill-rule:nonzero;"/></g><g transform="matrix(208.333333,0,0,208.333333,5609.631855,4269.004622)"><path d="M0.333,0.009c-0.059,0 -0.112,-0.012 -0.158,-0.036c-0.046,-0.024 -0.082,-0.057 -0.109,-0.099c-0.026,-0.042 -0.04,-0.091 -0.04,-0.145c0,-0.055 0.013,-0.103 0.04,-0.145c0.026,-0.042 0.063,-0.075 0.108,-0.099c0.046,-0.024 0.099,-0.036 0.158,-0.036c0.06,0 0.112,0.012 0.159,0.036c0.046,0.024 0.082,0.057 0.108,0.099c0.026,0.042 0.039,0.09 0.039,0.145c0,0.055 -0.013,0.103 -0.039,0.145c-0.026,0.042 -0.062,0.075 -0.109,0.099c-0.046,0.024 -0.099,0.036 -0.159,0.036Zm0,-0.151c0.022,0 0.041,-0.005 0.058,-0.015c0.017,-0.01 0.031,-0.025 0.041,-0.044c0.01,-0.02 0.015,-0.043 0.015,-0.07c-0,-0.028 -0.005,-0.051 -0.015,-0.07c-0.01,-0.019 -0.024,-0.033 -0.041,-0.043c-0.017,-0.01 -0.036,-0.015 -0.058,-0.015c-0.022,0 -0.041,0.005 -0.058,0.015c-0.017,0.01 -0.031,0.024 -0.041,0.043c-0.01,0.019 -0.015,0.042 -0.015,0.07c0,0.027 0.005,0.05 0.015,0.07c0.01,0.02 0.024,0.034 0.041,0.044c0.017,0.01 0.036,0.015 0.058,0.015Z" style="fill:#659ed5;fill-opacity:0.21;fill-rule:nonzero;"/></g><g transform="matrix(208.333333,0,0,208.333333,5748.381855,4269.004622)"><path d="M0.289,0.009c-0.044,0 -0.084,-0.009 -0.119,-0.026c-0.035,-0.017 -0.062,-0.044 -0.082,-0.081c-0.02,-0.037 -0.03,-0.084 -0.03,-0.141l0,-0.303l0.19,0l0,0.272c0,0.042 0.008,0.072 0.024,0.09c0.016,0.018 0.038,0.027 0.067,0.027c0.019,0 0.036,-0.004 0.051,-0.013c0.015,-0.009 0.027,-0.023 0.037,-0.042c0.009,-0.019 0.014,-0.043 0.014,-0.073l0,-0.262l0.19,0l0,0.542l-0.181,-0l0,-0.153l0.035,0.043c-0.019,0.04 -0.046,0.069 -0.081,0.089c-0.035,0.02 -0.074,0.029 -0.115,0.029Z" style="fill:#659ed5;fill-opacity:0.21;fill-rule:nonzero;"/></g><g transform="matrix(208.333333,0,0,208.333333,5892.548522,4269.004622)"><path d="M0.061,-0l0,-0.542l0.181,0l0,0.154l-0.035,-0.045c0.02,-0.039 0.048,-0.068 0.085,-0.088c0.036,-0.02 0.077,-0.03 0.122,-0.03c0.042,0 0.081,0.008 0.114,0.025c0.034,0.017 0.06,0.043 0.08,0.079c0.02,0.035 0.029,0.081 0.029,0.137l0,0.31l-0.19,-0l0,-0.279c0,-0.039 -0.008,-0.067 -0.023,-0.084c-0.016,-0.018 -0.037,-0.026 -0.065,-0.026c-0.02,0 -0.039,0.004 -0.055,0.013c-0.016,0.009 -0.029,0.022 -0.039,0.041c-0.009,0.019 -0.014,0.043 -0.014,0.074l0,0.262l-0.19,-0Z" style="fill:#659ed5;fill-opacity:0.21;fill-rule:nonzero;"/></g><g transform="matrix(208.333333,0,0,208.333333,6039.006855,4269.004622)"><path d="M0.297,0.009c-0.049,0 -0.093,-0.011 -0.134,-0.034c-0.041,-0.023 -0.073,-0.055 -0.097,-0.097c-0.024,-0.042 -0.036,-0.091 -0.036,-0.149c-0,-0.057 0.012,-0.107 0.036,-0.149c0.024,-0.042 0.056,-0.074 0.097,-0.097c0.041,-0.023 0.085,-0.034 0.134,-0.034c0.047,0 0.086,0.01 0.119,0.03c0.032,0.02 0.057,0.051 0.074,0.092c0.017,0.041 0.025,0.094 0.025,0.157c0,0.064 -0.008,0.117 -0.024,0.158c-0.016,0.041 -0.04,0.072 -0.072,0.092c-0.032,0.02 -0.073,0.03 -0.122,0.03Zm0.04,-0.151c0.021,0 0.041,-0.005 0.058,-0.015c0.017,-0.01 0.031,-0.025 0.041,-0.044c0.01,-0.02 0.015,-0.043 0.015,-0.07c0,-0.028 -0.005,-0.051 -0.015,-0.07c-0.01,-0.019 -0.024,-0.033 -0.041,-0.043c-0.017,-0.01 -0.036,-0.015 -0.058,-0.015c-0.021,0 -0.041,0.005 -0.058,0.015c-0.017,0.01 -0.031,0.024 -0.041,0.043c-0.01,0.019 -0.015,0.042 -0.015,0.07c0,0.027 0.005,0.05 0.015,0.07c0.01,0.02 0.024,0.034 0.041,0.044c0.017,0.01 0.036,0.015 0.058,0.015Zm0.12,0.142l0,-0.093l0.001,-0.179l-0.01,-0.179l0,-0.291l0.19,0l0,0.742l-0.181,-0Z" style="fill:#659ed5;fill-opacity:0.21;fill-rule:nonzero;"/></g><g transform="matrix(208.333333,0,0,208.333333,6184.423522,4269.004622)"><path d="M0.392,-0l0,-0.101l-0.013,-0.025l0,-0.186c0,-0.03 -0.009,-0.053 -0.028,-0.07c-0.018,-0.016 -0.047,-0.024 -0.087,-0.024c-0.027,0 -0.053,0.004 -0.08,0.012c-0.027,0.008 -0.049,0.02 -0.068,0.034l-0.064,-0.128c0.031,-0.021 0.068,-0.036 0.111,-0.047c0.043,-0.011 0.086,-0.016 0.128,-0.016c0.088,0 0.156,0.02 0.205,0.06c0.048,0.04 0.073,0.104 0.073,0.19l0,0.301l-0.177,-0Zm-0.159,0.009c-0.043,0 -0.08,-0.007 -0.11,-0.022c-0.03,-0.015 -0.053,-0.035 -0.068,-0.06c-0.016,-0.025 -0.023,-0.053 -0.023,-0.084c0,-0.033 0.008,-0.062 0.025,-0.087c0.017,-0.024 0.043,-0.043 0.078,-0.056c0.035,-0.013 0.081,-0.02 0.137,-0.02l0.129,0l0,0.1l-0.102,0c-0.031,0 -0.052,0.005 -0.064,0.015c-0.012,0.01 -0.019,0.023 -0.019,0.04c0,0.016 0.006,0.029 0.019,0.039c0.013,0.01 0.03,0.015 0.052,0.015c0.021,0 0.04,-0.005 0.057,-0.015c0.017,-0.01 0.029,-0.026 0.037,-0.047l0.026,0.07c-0.01,0.037 -0.029,0.066 -0.058,0.084c-0.029,0.019 -0.067,0.028 -0.115,0.028Z" style="fill:#659ed5;fill-opacity:0.21;fill-rule:nonzero;"/></g><g transform="matrix(208.333333,0,0,208.333333,6315.256855,4269.004622)"><path d="M0.303,0.009c-0.069,0 -0.123,-0.017 -0.162,-0.051c-0.038,-0.034 -0.058,-0.086 -0.058,-0.156l0,-0.465l0.19,0l0,0.463c0,0.02 0.005,0.035 0.016,0.046c0.01,0.011 0.024,0.016 0.041,0.016c0.022,0 0.041,-0.006 0.058,-0.017l0.047,0.133c-0.017,0.011 -0.036,0.018 -0.06,0.024c-0.023,0.005 -0.048,0.008 -0.073,0.008Zm-0.299,-0.409l0,-0.142l0.393,0l0,0.142l-0.393,0Z" style="fill:#659ed5;fill-opacity:0.21;fill-rule:nonzero;"/></g><g transform="matrix(208.333333,0,0,208.333333,6408.381855,4269.004622)"><path d="M0.061,-0l0,-0.542l0.19,0l0,0.542l-0.19,-0Zm0.095,-0.602c-0.035,0 -0.063,-0.01 -0.084,-0.029c-0.021,-0.019 -0.032,-0.043 -0.032,-0.072c0,-0.029 0.011,-0.052 0.032,-0.072c0.021,-0.019 0.049,-0.029 0.084,-0.029c0.035,0 0.063,0.009 0.084,0.027c0.021,0.018 0.032,0.042 0.032,0.07c0,0.03 -0.011,0.055 -0.032,0.075c-0.021,0.02 -0.049,0.029 -0.084,0.029Z" style="fill:#659ed5;fill-opacity:0.21;fill-rule:nonzero;"/></g><g transform="matrix(208.333333,0,0,208.333333,6473.590188,4269.004622)"><path d="M0.333,0.009c-0.059,0 -0.112,-0.012 -0.158,-0.036c-0.046,-0.024 -0.082,-0.057 -0.109,-0.099c-0.026,-0.042 -0.04,-0.091 -0.04,-0.145c0,-0.055 0.013,-0.103 0.04,-0.145c0.026,-0.042 0.063,-0.075 0.108,-0.099c0.046,-0.024 0.099,-0.036 0.158,-0.036c0.06,0 0.112,0.012 0.159,0.036c0.046,0.024 0.082,0.057 0.108,0.099c0.026,0.042 0.039,0.09 0.039,0.145c0,0.055 -0.013,0.103 -0.039,0.145c-0.026,0.042 -0.062,0.075 -0.109,0.099c-0.046,0.024 -0.099,0.036 -0.159,0.036Zm0,-0.151c0.022,0 0.041,-0.005 0.058,-0.015c0.017,-0.01 0.031,-0.025 0.041,-0.044c0.01,-0.02 0.015,-0.043 0.015,-0.07c-0,-0.028 -0.005,-0.051 -0.015,-0.07c-0.01,-0.019 -0.024,-0.033 -0.041,-0.043c-0.017,-0.01 -0.036,-0.015 -0.058,-0.015c-0.022,0 -0.041,0.005 -0.058,0.015c-0.017,0.01 -0.031,0.024 -0.041,0.043c-0.01,0.019 -0.015,0.042 -0.015,0.07c0,0.027 0.005,0.05 0.015,0.07c0.01,0.02 0.024,0.034 0.041,0.044c0.017,0.01 0.036,0.015 0.058,0.015Z" style="fill:#659ed5;fill-opacity:0.21;fill-rule:nonzero;"/></g><g transform="matrix(208.333333,0,0,208.333333,6612.340188,4269.004622)"><path d="M0.061,-0l0,-0.542l0.181,0l0,0.154l-0.035,-0.045c0.02,-0.039 0.048,-0.068 0.085,-0.088c0.036,-0.02 0.077,-0.03 0.122,-0.03c0.042,0 0.081,0.008 0.114,0.025c0.034,0.017 0.06,0.043 0.08,0.079c0.02,0.035 0.029,0.081 0.029,0.137l0,0.31l-0.19,-0l0,-0.279c0,-0.039 -0.008,-0.067 -0.023,-0.084c-0.016,-0.018 -0.037,-0.026 -0.065,-0.026c-0.02,0 -0.039,0.004 -0.055,0.013c-0.016,0.009 -0.029,0.022 -0.039,0.041c-0.009,0.019 -0.014,0.043 -0.014,0.074l0,0.262l-0.19,-0Z" style="fill:#659ed5;fill-opacity:0.21;fill-rule:nonzero;"/></g><g transform="matrix(208.333333,0,0,208.333333,6757.340188,4269.004622)"></g></g><defs><linearGradient id="_Linear2" x1="0" y1="0" x2="1" y2="0" gradientUnits="userSpaceOnUse" gradientTransform="matrix(10803.673267,7559.005862,-7559.005862,10803.673267,1059.334889,450.940124)"><stop offset="0" style="stop-color:#e8f2fc;stop-opacity:1"/><stop offset="1" style="stop-color:#659ed5;stop-opacity:1"/></linearGradient></defs></svg>