<?xml version="1.0" encoding="utf-8"?>
<!-- Generator: Adobe Illustrator 19.0.0, SVG Export Plug-In . SVG Version: 6.00 Build 0)  -->
<svg version="1.1" id="layer" xmlns="http://www.w3.org/2000/svg" xmlns:xlink="http://www.w3.org/1999/xlink" x="0px" y="0px"
	 viewBox="-153 -46 652 652" style="enable-background:new -153 -46 652 652;" xml:space="preserve">
<style type="text/css">
	.st0{fill:#00B5AD;}
</style>
<path class="st0" d="M-38.9,220.5v22.1c-0.1,7.6-6.3,13.6-13.9,13.5c-0.1,0-0.1,0-0.2,0h-28.2c-7.5-0.1-13.7,6-13.8,13.5V320
	c-0.2,8.4-7.1,15.1-15.5,15H-132v-65.6c0.1-7.6,6.3-13.6,13.9-13.5c0.1,0,0.1,0,0.2,0h9.4c7.5,0.1,13.7-6,13.8-13.5V234
	c0.1-7.6,6.3-13.6,13.9-13.5c0.1,0,0.1,0,0.2,0H-38.9z M-21.9,335h21.5c8.5,0.1,15.4-6.7,15.5-15.1c0,0,0,0,0,0v-99.3h-37V335z
	 M-21.9,170.9v35.7h21.5c8.5,0.1,15.4-6.7,15.5-15.1c0,0,0,0,0,0v-20.5H-21.9z M431,335h21.5c8.4,0.1,15.3-6.6,15.5-15v-99.5h-37
	V335z M431,170.9v35.7h21.5c8.5,0.1,15.4-6.7,15.5-15.1c0,0,0,0,0,0v-20.5H431z M138.5,220.5v132.2c-0.2,15-12.5,27-27.6,26.9H36
	V367c0.1-4.4,3.7-7.9,8.1-7.9c0,0,0,0,0,0h44.3c7.2,0.1,13.2-5.5,13.5-12.8V335H59.4c-14.9,0.1-27.1-11.8-27.4-26.7v-60.9
	c0.2-15,12.5-27,27.5-26.9H138.5z M102,314.6v-72.2H82c-7.1-0.1-13,5.7-13.1,12.8c0,0,0,0.1,0,0.1v46.9c0.1,7.1,6,12.8,13.1,12.8
	L102,314.6z M333.4,242.4v-14.1c-0.1-4.4-3.7-7.9-8.1-7.9c0,0,0,0,0,0h-17.4v-31.4h-22.3c-7.9-0.1-14.4,6.2-14.5,14.1v106.3
	c0.3,14.3,12,25.7,26.3,25.5h36v-12.7c-0.1-4.4-3.7-7.9-8.1-7.9c0,0,0,0,0,0H321c-7.1,0.1-13-5.6-13.1-12.8v-59.3H333.4z
	 M413.7,242.4v-14.1c-0.1-4.4-3.7-7.9-8.1-7.9c0,0,0,0,0,0h-17.3v-31.4H366c-7.9-0.1-14.4,6.2-14.6,14.1v106.3
	c0.3,14.3,12,25.7,26.3,25.5h35.9v-12.7c-0.1-4.4-3.7-7.9-8.1-7.9c0,0,0,0,0,0h-4.3c-7,0.1-12.9-5.5-13-12.6v-59.5H413.7z
	 M191.1,291.1v10.8c0.1,7.1,6,12.8,13.1,12.8h34.4c4.4-0.1,8,3.4,8.1,7.8c0,0,0,0,0,0V335h-63.4c-15,0.2-27.4-11.8-27.6-26.8
	c0,0,0,0,0-0.1v-60.9c0.2-15,12.5-27,27.6-26.9h43.9c14.7-0.2,26.7,11.5,26.9,26.2c0,0,0,0,0,0V291h-62.9V291.1z M204.1,242.4
	c-7.1-0.1-13,5.7-13.1,12.8c0,0,0,0.1,0,0.1v20.9h32.8v-33.8H204.1z"/>
</svg>
