<svg width="40" height="40" viewBox="0 0 40 40" fill="none" xmlns="http://www.w3.org/2000/svg" class="inline-block  fill-black"><path d="M29.1894 12.8611C29.5227 12.5277 29.5227 11.9722 29.1894 11.6388L28.7728 11.2222C28.4396 10.8888 27.8841 10.8888 27.5508 11.2222L21.7188 17.0555L23.3851 18.7222L29.1894 12.8611Z" class="fill-current"></path><path d="M34.937 33.2778C38.0753 29.75 39.9915 25.1111 39.9915 20C39.9915 8.94444 31.049 0 19.9958 0C8.94255 0 0 8.94444 0 20C0 31.0556 8.94255 40 19.9958 40C25.1058 40 29.7437 38.0833 33.2707 34.9444L38.0753 39.75C38.4085 40.0833 38.964 40.0833 39.2972 39.75L39.7138 39.3333C40.0471 39 40.0471 38.4444 39.7138 38.1111L34.937 33.2778ZM19.9958 37.8333C10.1367 37.8333 2.16621 29.8611 2.16621 20C2.16621 10.1389 10.1367 2.16667 19.9958 2.16667C29.8548 2.16667 37.8253 10.1389 37.8253 20C37.8253 24.5833 36.1035 28.75 33.2707 31.9167L21.6898 20.3611L20.0235 18.6944L12.5251 11.1944C12.1919 10.8611 11.6364 10.8611 11.3032 11.1944L10.8866 11.6111C10.5533 11.9444 10.5533 12.5 10.8866 12.8333L18.385 20.3333L10.8866 27.8333C10.5533 28.1667 10.5533 28.7222 10.8866 29.0556L11.3032 29.4722C11.6364 29.8056 12.1919 29.8056 12.5251 29.4722L20.0235 21.9722L31.5766 33.5278C28.4662 36.2222 24.4115 37.8333 19.9958 37.8333Z" class="fill-current"></path></svg>